<svg width="117" height="45" viewBox="0 0 117 45" fill="none" xmlns="http://www.w3.org/2000/svg">
<path fill-rule="evenodd" clip-rule="evenodd" d="M3.81022 0H113.19C115.292 0 117 1.70554 117 3.80466V28.207C117 30.3061 115.292 32.0117 113.19 32.0117H3.81022C1.70803 32.0117 0 30.3061 0 28.207V3.80466C0 1.70554 1.70803 0 3.81022 0Z" fill="#F26522"/>
<path fill-rule="evenodd" clip-rule="evenodd" d="M20.2331 25.3865C18.0652 24.7961 16.1601 24.1401 14.1893 23.4186C13.9922 23.353 13.8609 23.2874 13.6638 23.2874V20.9259C16.3572 20.9259 17.9338 18.4331 17.9338 15.1533C17.9338 12.2014 16.4886 9.51186 13.6638 9.51186H13.5981V7.21594C13.6638 7.21594 13.6638 7.21594 13.7295 7.21594C18.1966 7.21594 20.8244 10.627 20.8244 15.0221C20.8244 18.7611 19.1163 21.1882 16.8171 22.1722V22.2378C18.1309 22.6314 19.6419 22.9594 20.8901 23.1562L20.2331 25.3865ZM13.6638 23.2218C13.5324 23.1562 13.3353 23.1562 13.2039 23.1562C9.59078 22.9594 6.4375 20.3355 6.4375 15.2845C6.4375 10.5614 9.32801 7.21594 13.6638 7.21594V9.51186C10.9047 9.51186 9.3937 12.2014 9.3937 15.2845C9.3937 18.3675 10.9703 20.9259 13.6638 20.9259V23.2218Z" fill="white"/>
<path fill-rule="evenodd" clip-rule="evenodd" d="M33.307 19.6139C33.307 20.9258 33.3726 22.041 33.3726 22.9593H30.942L30.8106 21.2538H30.7449C30.2851 22.041 29.1683 23.1561 27.1318 23.1561C25.0953 23.1561 23.2559 21.9098 23.2559 18.3019V11.8077H26.0807V17.8427C26.0807 19.6795 26.6719 20.8602 28.1829 20.8602C29.2997 20.8602 30.088 20.073 30.3507 19.3515C30.4821 19.0891 30.4821 18.8267 30.4821 18.4987V11.8077H33.307V19.6139Z" fill="white"/>
<path fill-rule="evenodd" clip-rule="evenodd" d="M37.7739 10.1678C36.8542 10.1678 36.1973 9.51178 36.1973 8.65901C36.1973 7.80625 36.8542 7.15027 37.7739 7.15027C38.7593 7.15027 39.3506 7.80625 39.3506 8.65901C39.3506 9.51178 38.7593 10.1678 37.7739 10.1678ZM36.3943 22.9593V11.8077H39.2192V22.9593H36.3943Z" fill="white"/>
<path fill-rule="evenodd" clip-rule="evenodd" d="M50.4519 22.5657C49.8606 22.8281 48.6782 23.1561 47.2986 23.1561C43.8168 23.1561 41.5176 20.9258 41.5176 17.4491C41.5176 14.1036 43.8168 11.5453 47.7584 11.5453C48.8095 11.5453 49.8606 11.7421 50.4519 12.0045L49.9263 14.1692C49.4665 13.9068 48.8095 13.71 47.8241 13.71C45.6563 13.71 44.4081 15.2844 44.4081 17.3179C44.4081 19.6138 45.919 20.9258 47.8241 20.9258C48.7438 20.9258 49.4665 20.729 50.0577 20.4666L50.4519 22.5657Z" fill="white"/>
<path fill-rule="evenodd" clip-rule="evenodd" d="M55.3138 16.6619C55.6423 16.2027 55.9707 15.7436 56.2335 15.35L58.9926 11.7421H62.343L58.2043 16.2683L62.9342 22.9593H59.5182L56.2992 18.0395L55.3795 19.1546V22.9593H52.5547V6.62549H55.3795V16.6619H55.3138Z" fill="white"/>
<path fill-rule="evenodd" clip-rule="evenodd" d="M71.8678 7.47827V13.6445H78.3714V7.47827H81.1963V22.9593H78.3714V16.1372H71.8678V22.9593H69.043V7.47827H71.8678Z" fill="white"/>
<path fill-rule="evenodd" clip-rule="evenodd" d="M88.751 20.9258C89.0795 20.9914 89.408 20.9914 89.7364 20.9914C91.0503 20.9914 91.97 20.7946 92.824 20.4666L93.2182 22.3689C92.2985 22.7625 90.9189 23.0905 89.3423 23.0905C89.1452 23.0905 88.9481 23.0905 88.751 23.0905V20.9258ZM88.751 11.5453C88.8167 11.5453 88.9481 11.5453 89.0795 11.5453C92.6927 11.5453 93.8751 14.4972 93.8751 16.9899C93.8751 17.5147 93.8094 17.9083 93.8094 18.1707H88.751V16.2027H91.2474C91.2474 15.1532 90.7875 13.5132 88.9481 13.5132C88.8824 13.5132 88.8824 13.5132 88.8167 13.5132V11.5453H88.751ZM86.3204 18.1707C86.3861 19.8106 87.4372 20.6634 88.751 20.9914V23.1561C85.5321 22.8937 83.627 20.7946 83.627 17.5147C83.627 14.4972 85.4007 11.6765 88.751 11.5453V13.4476C87.1087 13.5132 86.3861 15.0876 86.3204 16.1371H88.751V18.1051H86.3204V18.1707Z" fill="white"/>
<path fill-rule="evenodd" clip-rule="evenodd" d="M104.847 20.2698C104.847 21.2537 104.912 22.2377 105.044 22.9593H102.482L102.285 21.7129H102.219C101.759 22.3033 101.036 22.8281 100.182 23.0249V21.1225C101.168 20.9914 101.825 20.3354 102.087 19.6138C102.153 19.417 102.153 19.2202 102.153 19.0234V17.5147C101.496 17.5147 100.774 17.5803 100.182 17.7115V15.7435C100.774 15.6779 101.365 15.6779 102.087 15.6779V15.4811C102.087 14.8252 101.825 13.71 100.182 13.5788V11.6109H100.314C103.861 11.6109 104.912 13.8412 104.912 16.3339V20.2698H104.847ZM100.117 23.0249C99.7225 23.0905 99.3283 23.1561 98.8685 23.1561C96.6349 23.1561 95.3867 21.5161 95.3867 19.8106C95.3867 17.4491 97.1604 16.0715 100.117 15.6779V17.5803C98.9999 17.8427 98.1458 18.3674 98.1458 19.4826C98.1458 20.5978 98.8685 21.1225 99.7225 21.1225C99.8539 21.1225 99.9853 21.1225 100.051 21.1225V23.0249H100.117ZM100.117 13.5132C99.9853 13.5132 99.8539 13.5132 99.7225 13.5132C98.6057 13.5132 97.4889 13.8412 96.7006 14.366L96.175 12.5293C96.9634 12.0701 98.4086 11.5453 100.117 11.5453V13.5132Z" fill="white"/>
<path d="M110.628 6.62549H107.803V22.8937H110.628V6.62549Z" fill="white"/>
<path d="M34.2926 41.7201C34.6868 41.9825 35.1466 42.1793 35.7379 42.1793C36.5262 42.1793 37.2488 41.7201 37.2488 40.933C37.2488 40.4082 36.986 40.0146 36.2634 39.6866C35.4094 39.2274 34.8838 38.6371 34.8838 37.9155C34.8838 36.6691 35.9349 35.882 37.1831 35.882C37.84 35.882 38.3656 36.0788 38.5627 36.2099L38.2342 36.9315C38.0371 36.8003 37.5773 36.6035 37.0517 36.6035C36.1977 36.6035 35.6722 37.1283 35.6722 37.7187C35.6722 38.3091 36.0006 38.5715 36.7233 38.965C37.5773 39.4242 38.0371 39.949 38.0371 40.8018C38.0371 41.9825 37.1174 42.9009 35.5408 42.9009C34.8838 42.9009 34.1612 42.7041 33.8984 42.4417L34.2926 41.7201Z" fill="black"/>
<path d="M42.5052 42.5073C42.111 42.7041 41.5198 42.9009 40.8629 42.9009C39.549 42.9009 39.0234 41.9826 39.0234 40.933C39.0234 39.4242 40.1402 37.7843 41.7169 37.7843C42.6366 37.7843 43.1621 38.3747 43.1621 39.0307C43.1621 40.3426 41.7169 40.6706 39.8775 40.605C39.8118 40.8018 39.8775 41.261 40.0088 41.5234C40.2059 41.9826 40.6001 42.1793 41.1256 42.1793C41.7169 42.1793 42.111 41.9826 42.4395 41.8514L42.5052 42.5073ZM41.5855 38.3747C40.7972 38.3747 40.2059 39.1619 39.9431 39.949C41.257 39.949 42.3081 39.8178 42.3081 39.0307C42.3081 38.6371 42.0453 38.3747 41.5855 38.3747Z" fill="black"/>
<path d="M46.9715 42.5729C46.7087 42.7041 46.1831 42.9009 45.5262 42.9009C44.278 42.9009 43.6211 42.0482 43.6211 40.9986C43.6211 39.3586 44.8693 37.7843 46.643 37.7843C47.1028 37.7843 47.497 37.9155 47.6941 37.9811L47.4313 38.6371C47.2342 38.5715 46.9715 38.4403 46.5773 38.4403C45.3291 38.4403 44.4751 39.6866 44.4751 40.8674C44.4751 41.6546 44.8693 42.1793 45.7233 42.1793C46.2488 42.1793 46.5773 42.0482 46.8401 41.917L46.9715 42.5729Z" fill="black"/>
<path d="M52.6859 37.8499L52.029 41.3265C51.8976 41.8513 51.8319 42.3761 51.8319 42.7697H51.1093L51.2406 41.8513C50.7808 42.5073 50.1896 42.9009 49.5326 42.9009C48.8757 42.9009 48.2188 42.5729 48.2188 41.4577C48.2188 41.1953 48.2187 40.9329 48.2844 40.605L48.81 37.8499H49.664L49.1385 40.605C49.0728 40.8673 49.0728 41.1297 49.0728 41.3265C49.0728 41.8513 49.2698 42.1793 49.8611 42.1793C50.4523 42.1793 51.2406 41.4577 51.4377 40.4082L51.8976 37.9155H52.6859V37.8499Z" fill="black"/>
<path d="M53.2129 42.7698L53.8041 39.6211C53.9355 38.9651 54.0012 38.3091 54.0669 37.8499H54.7895C54.7238 38.1779 54.7238 38.5715 54.6581 38.8995C54.9866 38.2435 55.5122 37.7188 56.1691 37.7188C56.2348 37.7188 56.3662 37.7188 56.4319 37.7188L56.3005 38.5715C56.2348 38.5715 56.1691 38.5715 56.0377 38.5715C55.3151 38.5715 54.6581 39.4243 54.4611 40.605L54.0669 42.7698H53.2129Z" fill="black"/>
<path d="M56.4316 42.7697L57.3513 37.8499H58.2054L57.2857 42.7697H56.4316ZM57.5484 36.4723C57.5484 36.1443 57.8112 35.882 58.074 35.882C58.4024 35.882 58.5995 36.0788 58.5995 36.4067C58.5995 36.7347 58.3367 36.9971 58.0083 36.9971C57.7455 36.9971 57.5484 36.8003 57.5484 36.4723Z" fill="black"/>
<path d="M60.9649 36.6692L60.7679 37.8499H61.9503L61.819 38.5059H60.6365L60.1766 40.8674C60.1109 41.1298 60.0452 41.3922 60.0452 41.6546C60.0452 41.9826 60.1766 42.1138 60.5051 42.1138C60.6365 42.1138 60.7679 42.1138 60.8992 42.0482L60.8336 42.7042C60.7022 42.7698 60.4394 42.7698 60.1766 42.7698C59.454 42.7698 59.1255 42.3106 59.1255 41.7858C59.1255 41.5234 59.1912 41.261 59.2569 40.8674L59.7168 38.3747H58.9941L59.1255 37.7188H59.8482L60.0452 36.8004L60.9649 36.6692Z" fill="black"/>
<path d="M63.1324 37.85L63.5922 40.4739C63.7236 41.0643 63.7893 41.3922 63.7893 41.7858C63.9207 41.4578 64.0521 41.1299 64.3149 40.6051L65.563 37.85H66.4827L64.6433 41.589C64.1178 42.6386 63.5922 43.4914 62.9353 44.1473C62.4098 44.7377 61.8185 44.9345 61.49 45.0001L61.293 44.2785C61.49 44.2129 61.8842 44.0818 62.2127 43.8194C62.5411 43.557 62.9353 43.1634 63.1981 42.7042C63.2638 42.6386 63.2638 42.573 63.1981 42.5074L62.2127 37.9156H63.1324V37.85Z" fill="black"/>
<path d="M68.5192 41.7201C68.9133 41.9825 69.3732 42.1793 69.9644 42.1793C70.7527 42.1793 71.4754 41.7201 71.4754 40.933C71.4754 40.4082 71.2126 40.0146 70.49 39.6866C69.636 39.2274 69.1104 38.6371 69.1104 37.9155C69.1104 36.6691 70.1615 35.882 71.4097 35.882C72.0666 35.882 72.5922 36.0788 72.7892 36.2099L72.4608 36.9315C72.2637 36.8003 71.8038 36.6035 71.2783 36.6035C70.4243 36.6035 69.8987 37.1283 69.8987 37.7187C69.8987 38.3091 70.2272 38.5715 70.9498 38.965C71.8038 39.4242 72.2637 39.949 72.2637 40.8018C72.2637 41.9825 71.344 42.9009 69.7673 42.9009C69.1104 42.9009 68.3878 42.7041 68.125 42.4417L68.5192 41.7201Z" fill="black"/>
<path d="M73.1172 42.7697L74.0369 37.8499H74.8909L73.9712 42.7697H73.1172ZM74.234 36.4723C74.234 36.1443 74.4968 35.882 74.7595 35.882C75.088 35.882 75.2851 36.0788 75.2851 36.4067C75.2851 36.7347 75.0223 36.9971 74.6938 36.9971C74.3654 36.9971 74.234 36.8003 74.234 36.4723Z" fill="black"/>
<path d="M75.4824 42.7696L76.1394 39.293C76.2707 38.7682 76.3364 38.2434 76.3364 37.8498H77.0591L76.9277 38.7682C77.3875 38.0466 77.9788 37.7186 78.6357 37.7186C79.3583 37.7186 79.7525 38.1778 79.7525 38.8338C80.2123 38.1122 80.8036 37.7186 81.5262 37.7186C82.1175 37.7186 82.7087 38.1122 82.7087 39.0306C82.7087 39.2274 82.7087 39.621 82.643 39.8834L82.1175 42.7696H81.2634L81.789 39.9489C81.8547 39.7522 81.8547 39.4898 81.8547 39.293C81.8547 38.7682 81.6576 38.4402 81.1321 38.4402C80.5408 38.4402 79.8182 39.1618 79.5554 40.2769L79.0956 42.7696H78.3072L78.8328 39.8834C78.8985 39.6866 78.8985 39.4898 78.8985 39.293C78.8985 38.8994 78.7671 38.4402 78.1758 38.4402C77.5846 38.4402 76.7963 39.2274 76.5992 40.2769L76.1394 42.7696H75.4824Z" fill="black"/>
<path d="M83.2344 44.7376L84.2198 39.5554C84.3512 38.965 84.4169 38.3091 84.4826 37.7843H85.2709L85.1395 38.7026C85.5993 38.0467 86.2563 37.6531 86.9132 37.6531C87.9643 37.6531 88.4242 38.5058 88.4242 39.4242C88.4242 41.1298 87.176 42.7697 85.5336 42.7697C85.0081 42.7697 84.6796 42.6385 84.4826 42.5729L84.0884 44.672H83.2344V44.7376ZM84.6139 41.9169C84.811 42.1137 85.1395 42.1793 85.5336 42.1793C86.6504 42.1793 87.5045 40.8018 87.5045 39.5554C87.5045 39.0306 87.3074 38.4402 86.5848 38.4402C85.9278 38.4402 85.0738 39.1618 84.8767 40.5394L84.6139 41.9169Z" fill="black"/>
<path d="M89.0156 42.7697L90.3952 35.554H91.2492L89.8696 42.7697H89.0156Z" fill="black"/>
<path d="M91.3145 42.7697L92.2342 37.8499H93.0882L92.1685 42.7697H91.3145ZM92.4312 36.4723C92.4312 36.1443 92.694 35.882 92.9568 35.882C93.2853 35.882 93.4823 36.0788 93.4823 36.4067C93.4823 36.7347 93.2196 36.9971 92.8911 36.9971C92.5626 36.9971 92.4312 36.8003 92.4312 36.4723Z" fill="black"/>
<path d="M93.7441 42.7697L94.5325 38.5058H93.8755L94.0069 37.8498H94.6639L94.7295 37.5875C94.9923 36.2755 95.7806 35.4227 97.0945 35.4227C97.5544 35.4227 98.0142 35.5539 98.2113 35.6851L97.9485 36.3411C97.7515 36.2099 97.423 36.1443 96.9631 36.1443C96.1091 36.1443 95.7149 36.8003 95.5836 37.5875L95.5179 37.7842H98.1456L97.2259 42.7041H96.3719L97.1602 38.4402H95.3865L94.5982 42.7041H93.7441V42.7697Z" fill="black"/>
<path d="M102.22 42.5073C101.826 42.7041 101.235 42.9009 100.578 42.9009C99.2638 42.9009 98.7383 41.9826 98.7383 40.933C98.7383 39.4242 99.8551 37.7843 101.432 37.7843C102.351 37.7843 102.877 38.3747 102.877 39.0307C102.877 40.3426 101.432 40.6706 99.5923 40.605C99.5266 40.8018 99.5923 41.261 99.7237 41.5234C99.9208 41.9826 100.315 42.1793 100.84 42.1793C101.432 42.1793 101.826 41.9826 102.154 41.8514L102.22 42.5073ZM101.3 38.3747C100.512 38.3747 99.9208 39.1619 99.658 39.949C100.972 39.949 102.023 39.8178 102.023 39.0307C102.089 38.6371 101.76 38.3747 101.3 38.3747Z" fill="black"/>
<path d="M108.526 35.554L107.475 41.1954C107.41 41.7201 107.278 42.3105 107.278 42.7697H106.49L106.621 41.7857C106.161 42.5073 105.57 42.9009 104.848 42.9009C103.862 42.9009 103.402 42.1137 103.402 41.1298C103.402 39.3586 104.716 37.7843 106.424 37.7843C106.753 37.7843 107.081 37.8499 107.278 37.9811L107.738 35.6196H108.526V35.554ZM107.081 38.637C106.95 38.5059 106.621 38.4403 106.293 38.4403C105.11 38.4403 104.191 39.6866 104.191 40.9986C104.191 41.5889 104.388 42.1793 105.11 42.1793C105.767 42.1793 106.556 41.4577 106.753 40.3426L107.081 38.637Z" fill="black"/>
</svg>
